<svg width="1130" height="435" viewBox="0 0 1130 435" fill="none" xmlns="http://www.w3.org/2000/svg">
<rect width="1130" height="435" fill="white"/>
<path fill-rule="evenodd" clip-rule="evenodd" d="M934 110.323C935.65 111.793 937.48 113.126 939.5 114.323C940.8 116.188 941.13 118.188 940.5 120.323C935.31 125.542 930.48 131.042 926 136.823C919.261 137.714 915.928 134.714 916 127.823C915.994 125.523 916.494 123.357 917.5 121.323C920.297 117.524 923.464 114.024 927 110.823C929.31 110.326 931.643 110.16 934 110.323Z" fill="#060506"/>
<path fill-rule="evenodd" clip-rule="evenodd" d="M378 117.323C382.742 116.959 386.908 118.293 390.5 121.323C390.667 122.156 390.833 122.99 391 123.823C387.559 129.284 384.059 134.784 380.5 140.323C374.269 142.283 371.103 139.95 371 133.323C371.094 130.9 371.594 128.567 372.5 126.323C374.356 123.267 376.189 120.267 378 117.323Z" fill="#060506"/>
<path fill-rule="evenodd" clip-rule="evenodd" d="M255 138.323C259.191 147.985 260.024 157.985 257.5 168.323C248.626 197.913 232.792 223.08 210 243.823C197.183 255.065 183.183 264.565 168 272.323C166.541 272.256 165.208 272.589 164 273.323C154.847 277.46 145.181 279.127 135 278.323C119.564 276.178 115.397 268.178 122.5 254.323C123.913 252.409 125.747 251.076 128 250.323C128.21 253.209 128.377 256.209 128.5 259.323C129.292 261.467 130.792 262.8 133 263.323C139.546 264.615 146.213 264.449 153 262.823C171.563 255.604 187.396 244.437 200.5 229.323C214.739 212.528 226.739 194.195 236.5 174.323C241.183 164.891 242.85 154.891 241.5 144.323C239.51 140.333 236.343 137.833 232 136.823C225.056 135.368 218.056 135.035 211 135.823C169.707 142.219 137.873 163.052 115.5 198.323C114.697 201.067 113.697 203.734 112.5 206.323C111.833 208.99 111.833 211.656 112.5 214.323C113.755 216.417 115.588 217.417 118 217.323C121.052 216.809 124.052 216.143 127 215.323C128.073 216.074 128.24 217.074 127.5 218.323C125.4 221.29 122.566 223.123 119 223.823C101.861 227.654 92.194 220.987 90 203.823C90.006 201.79 90.339 199.957 91 198.323C92.424 196.308 93.09 193.975 93 191.323C98.075 179.059 105.741 168.559 116 159.823C142.406 137.902 172.739 124.902 207 120.823C220.017 118.755 232.351 120.755 244 126.823C248.573 129.893 252.239 133.727 255 138.323Z" fill="#060506"/>
<path fill-rule="evenodd" clip-rule="evenodd" d="M146 238.323C155.872 217.579 166.539 197.246 178 177.323C184.517 166.803 191.184 156.303 198 145.823C204.791 142.742 211.624 142.575 218.5 145.323C219.167 147.323 219.167 149.323 218.5 151.323C194.641 184.22 175.141 219.387 160 256.823C145.375 258.354 140.709 252.188 146 238.323Z" fill="#060506"/>
<path fill-rule="evenodd" clip-rule="evenodd" d="M1024 111.824C1031.02 110.491 1036.35 112.824 1040 118.824C1024.47 137.357 1009.3 156.19 994.5 175.324C986.77 186.724 979.44 198.391 972.5 210.324C970.03 214.718 969.03 219.385 969.5 224.324C973.74 229.12 978.57 229.62 984 225.824C987.35 224.147 990.35 221.981 993 219.324C993.33 220.157 993.67 220.991 994 221.824C991.23 229.424 986.23 234.924 979 238.324C958.84 241.002 950.34 232.336 953.5 212.324C954.76 210.07 955.92 207.736 957 205.324C956.67 204.991 956.33 204.657 956 204.324C946.79 213.597 935.79 219.764 923 222.824C916.905 224.09 911.238 223.09 906 219.824C903.426 217.506 901.759 214.673 901 211.324C901.164 208.637 900.997 205.97 900.5 203.324C899.783 203.868 899.283 204.535 899 205.324C895.157 208.327 891.157 211.16 887 213.824C880.126 218.104 873.293 218.271 866.5 214.324C865.692 212.401 865.192 210.401 865 208.324C865.921 205.207 866.755 202.207 867.5 199.324C861.595 206.027 854.428 210.86 846 213.824C835.208 215.747 830.375 211.247 831.5 200.324C840.136 183.018 851.136 167.351 864.5 153.324C865.188 152.492 865.021 151.826 864 151.324C841.955 168.529 823.289 188.696 808 211.824C803.416 213.161 799.749 211.995 797 208.324C797.308 205.9 796.974 203.567 796 201.324C795.393 201.448 795.06 201.781 795 202.324C788.89 208.551 781.557 211.717 773 211.824C770.5 210.657 768.667 208.824 767.5 206.324C766.94 201.836 767.273 197.503 768.5 193.324C761.274 202.257 752.274 208.257 741.5 211.324C733.714 210.021 730.214 205.355 731 197.324C732.424 195.309 733.09 192.976 733 190.324C740.575 171.034 752.242 154.534 768 140.824C772.398 137.967 776.732 135.133 781 132.324C786.282 131.257 791.615 131.091 797 131.824C799.48 133.306 801.647 135.139 803.5 137.324C806.738 135.397 810.238 134.897 814 135.824C816.564 136.886 818.231 138.72 819 141.324C809.096 156.79 798.929 172.123 788.5 187.324C785.793 190.683 784.959 194.35 786 198.324C792.234 194.596 797.734 189.929 802.5 184.324C815.053 168.105 827.219 151.605 839 134.824C842.447 134.632 845.78 135.299 849 136.824C850.399 137.886 851.399 139.219 852 140.824C847.461 149.069 842.294 156.902 836.5 164.324C835.833 164.991 835.833 165.657 836.5 166.324C845.439 156.38 855.272 147.546 866 139.824C872.444 136.154 878.444 136.654 884 141.324C885.468 145.194 884.968 148.86 882.5 152.324C871.06 166.431 860.393 181.097 850.5 196.324C849.155 198.654 848.988 200.987 850 203.324C859.532 197.299 868.032 189.966 875.5 181.324C885.122 168.246 894.622 155.079 904 141.824C910.774 140.216 915.774 142.383 919 148.324C908.268 162.774 897.768 177.441 887.5 192.324C884.906 196.391 883.072 200.725 882 205.324C883.808 205.333 885.475 204.833 887 203.824C893.428 199.401 899.261 194.234 904.5 188.324C912.545 175.107 922.378 163.273 934 152.824C939.86 147.975 946.53 144.642 954 142.824C961.98 141.488 968.31 143.988 973 150.324C973.07 161.019 968.74 169.519 960 175.824C948.87 184.424 936.37 189.924 922.5 192.324C914.198 209.023 918.698 213.856 936 206.824C949.53 199.616 961.37 190.116 971.5 178.324C987.48 155.008 1004.98 132.841 1024 111.824ZM791 143.324C770.956 157.094 756.956 175.428 749 198.324C750.052 198.473 751.052 198.307 752 197.824C768.315 184.511 782.148 169.011 793.5 151.324C795.207 148.915 796.04 146.249 796 143.324H791ZM958 154.324C947.09 162.236 937.42 171.569 929 182.324C929.5 182.657 930 182.991 930.5 183.324C941.24 178.262 950.57 171.262 958.5 162.324C960.49 160.006 961.66 157.34 962 154.324H958Z" fill="#060506"/>
<path fill-rule="evenodd" clip-rule="evenodd" d="M696 105.323C700.014 105.157 704.014 105.324 708 105.823C711.375 106.852 712.542 109.019 711.5 112.323C689.175 140.283 669.842 170.283 653.5 202.323C653.698 205.058 653.531 207.724 653 210.323C633.593 213.225 628.76 205.892 638.5 188.323C653.584 160.482 670.918 134.148 690.5 109.323C692.515 108.126 694.349 106.793 696 105.323Z" fill="#060506"/>
<path fill-rule="evenodd" clip-rule="evenodd" d="M505 223.323C506.193 223.793 506.86 224.793 507 226.323C506.06 229.466 504.727 232.466 503 235.323C498.894 237.053 497.394 235.72 498.5 231.323C500.91 228.758 503.076 226.091 505 223.323Z" fill="#060506"/>
<path fill-rule="evenodd" clip-rule="evenodd" d="M700 84.3226C715.78 82.7516 729.78 86.9186 742 96.8226C751.207 107.985 754.54 120.818 752 135.323C737.379 179.444 708.046 209.278 664 224.823C655.714 226.277 647.381 226.61 639 225.823C625.175 222.087 611.175 219.754 597 218.823C589.641 232.847 578.975 243.515 565 250.823C558.667 252.823 552.333 252.823 546 250.823C536.779 243.568 535.613 235.067 542.5 225.323C548.578 218.534 556.078 214.201 565 212.323C567.398 212.564 569.398 211.896 571 210.323C573.627 209.731 576.294 209.398 579 209.323C582.726 209.646 586.393 209.312 590 208.323C590.627 207.406 590.961 206.405 591 205.323C595.081 197.834 598.581 190.167 601.5 182.323C595.295 190.195 588.128 197.029 580 202.823C574.14 205.736 569.474 204.57 566 199.323C565.834 195.309 566.001 191.308 566.5 187.323C572.245 174.165 578.745 161.498 586 149.323C589.271 143.63 592.938 138.13 597 132.823C600.656 131.987 603.99 132.654 607 134.823C608.399 135.885 609.399 137.218 610 138.823C599.876 154.561 590.376 170.729 581.5 187.323C580.702 189.081 580.869 190.749 582 192.323C588.647 187.509 594.481 181.842 599.5 175.323C608.219 164.271 616.553 152.936 624.5 141.323C625.316 140 626.483 139.334 628 139.323C631.605 139.622 634.939 140.788 638 142.823C639.017 143.872 639.184 145.039 638.5 146.323C625.09 166.481 613.257 187.481 603 209.323C617.271 210.291 631.438 211.958 645.5 214.323C659.657 212.709 672.491 207.541 684 198.823C708.383 179.882 725.216 155.714 734.5 126.323C737.607 113.032 732.774 104.198 720 99.8226C689.141 97.4386 663.308 107.605 642.5 130.323C641.372 132.168 640.872 134.168 641 136.323C637.388 136.899 634.388 135.898 632 133.323C628.758 125.364 629.924 118.031 635.5 111.323C653.29 93.6836 674.79 84.6836 700 84.3226ZM582 217.823C579.69 217.326 577.357 217.16 575 217.323C566.13 219.522 558.63 224.189 552.5 231.323C549.945 234.539 549.445 238.039 551 241.823C553 242.49 555 242.49 557 241.823C567.616 236.207 575.949 228.207 582 217.823Z" fill="#060506"/>
<path fill-rule="evenodd" clip-rule="evenodd" d="M508.5 138.323C513.863 133.443 519.697 133.109 526 137.323C526.333 138.156 526.667 138.99 527 139.823C525.248 142.583 523.081 145.083 520.5 147.323C519.225 149.54 518.225 151.874 517.5 154.323C517.51 165.121 516.677 175.787 515 186.323C514.274 189.794 512.94 193.127 511 196.323C504.449 211.268 493.449 216.435 478 211.823C475.394 209.885 473.561 207.385 472.5 204.323C468.095 209.581 462.595 212.914 456 214.323C451.004 214.496 447.837 212.163 446.5 207.323C445.833 204.656 445.833 201.99 446.5 199.323C448.091 196.896 448.925 194.23 449 191.323C455.337 179.833 462.337 168.666 470 157.823C469.333 157.156 468.667 157.156 468 157.823C458.682 166.962 450.349 176.795 443 187.323C435.878 195.81 429.878 205.143 425 215.323C419.72 217.183 416.054 215.516 414 210.323C413.851 207.216 414.351 204.216 415.5 201.323C423.6 186.124 431.433 170.79 439 155.323C441.294 151.583 443.96 148.083 447 144.823C450.656 143.987 453.99 144.654 457 146.823C457.581 147.716 457.915 148.716 458 149.823C456.208 153.577 454.541 157.41 453 161.323C450.775 164.085 448.775 167.085 447 170.323C447.167 170.656 447.333 170.99 447.5 171.323C449.915 168.809 452.081 166.142 454 163.323C460.469 156.022 467.469 149.188 475 142.823C487.89 142.012 491.39 147.179 485.5 158.323C477.064 170.861 469.397 183.861 462.5 197.323C461.702 199.082 461.869 200.749 463 202.323C467.959 197.742 472.459 192.742 476.5 187.323C487.913 171.502 498.58 155.169 508.5 138.323ZM501 164.323C493.833 175.313 486.166 185.98 478 196.323C479.799 201.846 483.465 203.68 489 201.823C497.422 195.092 501.755 186.258 502 175.323C502.315 171.452 501.982 167.785 501 164.323Z" fill="#060506"/>
<path fill-rule="evenodd" clip-rule="evenodd" d="M560.5 107.323C563.573 106.206 566.74 106.039 570 106.823C572.236 107.557 573.569 109.057 574 111.323C566.326 124.007 558.66 136.674 551 149.323C549.021 151.922 547.021 154.588 545 157.323C545.167 157.656 545.333 157.99 545.5 158.323C547.954 156.382 549.787 154.048 551 151.323C555.458 147.589 560.125 144.089 565 140.823C568.761 140.085 572.428 140.418 576 141.823C577.641 142.952 578.641 144.452 579 146.323C578.29 152.162 576.79 157.828 574.5 163.323C569.173 173.312 563.34 182.979 557 192.323C551.441 199.38 544.774 205.213 537 209.823C531.485 212.688 527.152 211.522 524 206.323C521.607 208.711 520.774 211.378 521.5 214.323C519.747 215.45 517.913 216.45 516 217.323C515.221 223 514.388 228.667 513.5 234.323C508.52 243.144 502.187 244.477 494.5 238.323C493.833 235.99 493.833 233.656 494.5 231.323C500.184 223.978 506.184 216.978 512.5 210.323C512.304 206.032 512.137 201.699 512 197.323C513.704 194.567 515.037 191.567 516 188.323C521.701 173.923 528.201 159.923 535.5 146.323C543.833 133.323 552.167 120.323 560.5 107.323ZM562 150.323C545.802 164.394 533.802 181.394 526 201.323C527.373 201.48 528.707 201.313 530 200.823C545.183 188.32 556.349 172.82 563.5 154.323C564.344 152.36 563.844 151.027 562 150.323Z" fill="#060506"/>
<path fill-rule="evenodd" clip-rule="evenodd" d="M329 145.823C335.099 143.499 340.933 143.999 346.5 147.323C347.167 148.656 347.167 149.99 346.5 151.323C342.743 154.409 339.743 158.075 337.5 162.323C337.005 164.296 336.838 166.296 337 168.323C337.148 182.519 335.148 196.519 331 210.323C324.66 223.162 314.326 228.662 300 226.823C296.145 224.301 292.978 221.134 290.5 217.323C285.578 222.243 280.078 226.41 274 229.823C252.367 237.527 243.533 230.027 247.5 207.323C252.386 194.549 258.552 182.549 266 171.323C272.636 163.851 280.303 157.685 289 152.823C305.874 150.703 311.041 157.537 304.5 173.323C295.028 188.131 282.028 198.465 265.5 204.323C257.793 219.76 261.293 223.593 276 215.823C288.593 204.566 299.759 192.066 309.5 178.323C316.372 167.697 322.872 156.863 329 145.823ZM320 175.323C312.592 186.9 304.592 198.067 296 208.823C299.425 215.787 304.425 217.12 311 212.823C317.397 204.8 320.731 195.634 321 185.323C321.313 181.781 320.979 178.448 320 175.323ZM295.5 162.888C294.675 162.002 293.675 161.669 292.5 161.888C281.962 170.768 273.629 181.436 267.5 193.888L268.5 194.888C280.445 186.619 289.445 175.951 295.5 162.888Z" fill="#060506"/>
<path fill-rule="evenodd" clip-rule="evenodd" d="M855 237.323C866.817 238.553 878.817 239.386 891 239.823C913.702 241.834 935.7 246.667 957 254.323C963.15 256.963 968.32 260.963 972.5 266.323C973.39 269.44 972.39 271.774 969.5 273.323C959.32 266.814 948.15 262.648 936 260.823C919.849 257.465 903.516 255.632 887 255.323C873.03 253.837 858.863 253.17 844.5 253.323C830.8 253.146 817.3 253.813 804 255.323C794.25 255.017 784.584 255.35 775 256.323C763.44 256.416 752.107 257.416 741 259.323C699.82 262.788 658.82 267.788 618 274.323C608.389 275.146 599.055 276.812 590 279.323C589 279.323 588 279.323 587 279.323C581.106 279.762 575.44 280.762 570 282.323C541.828 286.495 513.828 291.495 486 297.323C483.005 297.117 480.338 297.783 478 299.323C448.285 305.17 418.618 311.337 389 317.823C347.145 328.453 305.145 338.453 263 347.823C246.183 351.581 229.183 352.914 212 351.823C189.536 346.007 179.702 331.507 182.5 308.323C187.196 297.625 194.696 289.458 205 283.823C209.887 281.549 214.554 279.049 219 276.323C244.497 266.319 270.83 259.153 298 254.823C306.064 253.96 314.064 254.293 322 255.823C328.386 258.092 331.052 262.592 330 269.323C300.455 273.597 271.788 281.097 244 291.823C232.041 297.468 220.707 304.134 210 311.823C205.877 314.757 203.21 318.591 202 323.323C215.48 323.807 228.813 322.64 242 319.823C381.915 285.393 523.582 260.893 667 246.323C673.226 246.435 679.226 245.769 685 244.323C709.761 241.213 734.761 239.213 760 238.323C791.66 237.548 823.327 237.215 855 237.323Z" fill="#060506"/>
<path fill-rule="evenodd" clip-rule="evenodd" d="M405 145.823C410.722 144.657 416.056 145.49 421 148.323C422.834 147.069 424.834 146.402 427 146.323C430.924 147.731 433.091 150.397 433.5 154.323C423.838 172.643 415.005 191.311 407 210.323C404.508 213.973 402.508 217.974 401 222.323C400.457 222.383 400.124 222.716 400 223.323C402.928 224.307 405.928 224.64 409 224.323H411C428.478 226.714 446.144 228.714 464 230.323C469.556 230.295 474.889 229.629 480 228.323C483.333 227.656 486.667 226.99 490 226.323C489.779 231.598 487.779 236.099 484 239.823C472.919 245.677 461.253 247.011 449 243.823C431.133 239.449 413.133 236.115 395 233.823C389.544 243.39 382.878 252.058 375 259.823C366.277 268.509 355.943 271.51 344 268.823C336.06 261.713 334.893 253.545 340.5 244.323C352.222 231.048 367.056 224.048 385 223.323C390.489 216.035 394.322 208.034 396.5 199.323C392.925 204.622 388.758 209.456 384 213.823C372.91 220.878 366.743 218.045 365.5 205.323C363.09 208.219 360.923 211.22 359 214.323C355.488 216.993 351.822 219.493 348 221.823C338.21 224.197 333.21 220.363 333 210.323C335.332 204.328 337.665 198.327 340 192.323C346.947 177.764 354.447 163.43 362.5 149.323C367.379 146.551 371.879 147.217 376 151.323C377.114 152.546 377.281 153.879 376.5 155.323C367.912 170.83 359.579 186.498 351.5 202.323C350.678 204.939 350.178 207.607 350 210.323C351.052 210.472 352.052 210.305 353 209.823C357.202 205.956 361.035 201.789 364.5 197.323C370.207 184.242 377.207 171.907 385.5 160.323C391.176 154.305 397.676 149.472 405 145.823ZM380 234.323C379.291 233.419 378.291 233.086 377 233.323C364.562 235.289 355.062 241.623 348.5 252.323C347.333 257.823 349.5 259.99 355 258.823C365.828 253.161 374.162 244.994 380 234.323ZM411 156.323C403.338 162.494 396.838 169.827 391.5 178.323C386.049 185.893 382.216 194.226 380 203.323C380.333 203.99 380.667 204.656 381 205.323C385.277 202.55 389.11 199.216 392.5 195.323C399.914 185.5 406.581 175.167 412.5 164.323C414.091 161.896 414.925 159.229 415 156.323H411Z" fill="#060506"/>
</svg>
